<svg width="99" height="94" viewBox="0 0 99 94" fill="none" xmlns="http://www.w3.org/2000/svg">
<path d="M49.144 93.536C42.0613 93.536 35.4907 92.384 29.432 90.08C23.4587 87.776 18.2533 84.5333 13.816 80.352C9.464 76.1707 6.05067 71.264 3.576 65.632C1.18667 60 -0.0079999 53.856 -0.0079999 47.2C-0.0079999 40.544 1.18667 34.4 3.576 28.768C6.05067 23.136 9.50667 18.2293 13.944 14.048C18.3813 9.86666 23.5867 6.62399 29.56 4.31999C35.5333 2.016 42.0187 0.863998 49.016 0.863998C56.0987 0.863998 62.584 2.016 68.472 4.31999C74.4453 6.62399 79.608 9.86666 83.96 14.048C88.3973 18.2293 91.8533 23.136 94.328 28.768C96.8027 34.3147 98.04 40.4587 98.04 47.2C98.04 53.856 96.8027 60.0427 94.328 65.76C91.8533 71.392 88.3973 76.2987 83.96 80.48C79.608 84.576 74.4453 87.776 68.472 90.08C62.584 92.384 56.1413 93.536 49.144 93.536ZM49.016 75.872C53.0267 75.872 56.696 75.1893 60.024 73.824C63.4373 72.4587 66.424 70.496 68.984 67.936C71.544 65.376 73.5067 62.3467 74.872 58.848C76.3227 55.3493 77.048 51.4667 77.048 47.2C77.048 42.9333 76.3227 39.0507 74.872 35.552C73.5067 32.0533 71.544 29.024 68.984 26.464C66.5093 23.904 63.5653 21.9413 60.152 20.576C56.7387 19.2107 53.0267 18.528 49.016 18.528C45.0053 18.528 41.2933 19.2107 37.88 20.576C34.552 21.9413 31.608 23.904 29.048 26.464C26.488 29.024 24.4827 32.0533 23.032 35.552C21.6667 39.0507 20.984 42.9333 20.984 47.2C20.984 51.3813 21.6667 55.264 23.032 58.848C24.4827 62.3467 26.4453 65.376 28.92 67.936C31.48 70.496 34.4667 72.4587 37.88 73.824C41.2933 75.1893 45.0053 75.872 49.016 75.872Z" fill="#F68B1D"/>
</svg>
