<svg width="76" height="94" viewBox="0 0 76 94" fill="none" xmlns="http://www.w3.org/2000/svg">
<path d="M37.2515 93.536C30.0835 93.536 23.2142 92.5973 16.6435 90.72C10.0728 88.7573 4.78217 86.24 0.7715 83.168L7.8115 67.552C11.6515 70.2827 16.1742 72.544 21.3795 74.336C26.6702 76.0427 32.0035 76.896 37.3795 76.896C41.4755 76.896 44.7608 76.512 47.2355 75.744C49.7955 74.8907 51.6728 73.7387 52.8675 72.288C54.0622 70.8373 54.6595 69.1733 54.6595 67.296C54.6595 64.9067 53.7208 63.0293 51.8435 61.664C49.9662 60.2133 47.4915 59.0613 44.4195 58.208C41.3475 57.2693 37.9342 56.416 34.1795 55.648C30.5102 54.7947 26.7982 53.7707 23.0435 52.576C19.3742 51.3813 16.0035 49.8453 12.9315 47.968C9.8595 46.0907 7.34217 43.616 5.3795 40.544C3.50217 37.472 2.5635 33.5467 2.5635 28.768C2.5635 23.648 3.92883 18.9973 6.6595 14.816C9.4755 10.5493 13.6568 7.17866 19.2035 4.70399C24.8355 2.144 31.8755 0.863998 40.3235 0.863998C45.9555 0.863998 51.5022 1.54666 56.9635 2.91199C62.4248 4.19199 67.2462 6.15466 71.4275 8.8L65.0275 24.544C60.8462 22.1547 56.6648 20.4053 52.4835 19.296C48.3022 18.1013 44.2062 17.504 40.1955 17.504C36.1848 17.504 32.8995 17.9733 30.3395 18.912C27.7795 19.8507 25.9448 21.088 24.8355 22.624C23.7262 24.0747 23.1715 25.7813 23.1715 27.744C23.1715 30.048 24.1102 31.9253 25.9875 33.376C27.8648 34.7413 30.3395 35.8507 33.4115 36.704C36.4835 37.5573 39.8542 38.4107 43.5235 39.264C47.2782 40.1173 50.9902 41.0987 54.6595 42.208C58.4142 43.3173 61.8275 44.8107 64.8995 46.688C67.9715 48.5653 70.4462 51.04 72.3235 54.112C74.2862 57.184 75.2675 61.0667 75.2675 65.76C75.2675 70.7947 73.8595 75.4027 71.0435 79.584C68.2275 83.7653 64.0035 87.136 58.3715 89.696C52.8248 92.256 45.7848 93.536 37.2515 93.536Z" fill="#F68B1D"/>
</svg>
